<?xml version="1.0" encoding="utf-8"?>
<!-- Generator: Adobe Illustrator 23.0.3, SVG Export Plug-In . SVG Version: 6.00 Build 0)  -->
<svg version="1.1" id="Capa_1" xmlns="http://www.w3.org/2000/svg" xmlns:xlink="http://www.w3.org/1999/xlink" x="0px" y="0px"
	 viewBox="0 0 1200 1200" enable-background="new 0 0 1200 1200" xml:space="preserve">
<g>
	<path fill="#EAEAD3" d="M1016.598,581.177c-57.096-22.835-124.384-18.228-184.967-20.859
		c-188.776-8.197-381.988-17.968-569.498,11.187c-42.881,6.667-146.11,25.611-116.857,92.229
		c7.436,16.934,22.242,29.524,37.877,39.403c35.56,22.468,76.616,33.469,117.178,42.942c42.005,9.81,83.716,19.267,126.485,25.231
		c93.344,13.016,188.145,14.9,282.032,7.1c17.816-1.48,35.603-3.311,53.347-5.483c90.83-11.122,178.961-35.811,258.501-81.896
		c17.779-10.301,35.637-23.244,38.741-45.001c3.097-21.706-8.524-44.405-26.516-56.383
		C1027.781,586.226,1022.301,583.458,1016.598,581.177z"/>
	<path fill="#919B4C" d="M987.641,643.339c-1.5-4.188-6.834-8.718-7.884-13.412c-0.699-3.126,0.129-6.825,2.807-8.583
		c1.427-0.936,3.269-1.275,4.399-2.554c1.974-2.234,0.499-5.947-1.914-7.697c-2.413-1.75-5.474-2.328-8.102-3.734
		c-7.834-4.193-5.154-16.084-11.425-18.596c-3.854-1.543-7.449-2.264-11.146-2.338c0.668-2.132,1.336-4.265,2.004-6.397
		c1.012-3.231-1.703-6.267-4.857-6.376c-4.937-0.171-9.981-0.131-14.844-0.75c0.612-2.635-0.66-3.6-2.998-4.668
		c-2.443-1.115-4.022-3.878-3.742-6.548c-4.6-0.946-9.024,6.259-12.885,3.588c-3.222-2.229-0.786-8.61-4.243-10.454
		c-0.64-0.341-1.379-0.439-2.102-0.492c-4.941-0.361-10.678,1.857-11.99,6.634c-0.906-2.599-3.31-4.614-6.027-5.054
		c-2.717-0.439-5.633,0.716-7.312,2.898c-2.029,2.636-2.133,6.21-2.729,9.483c-0.827,4.543-4.723,9.203-6.706,13.468
		c-2.451,5.271-4.346,10.426-7.78,15.216c-6.536,9.117-15.77,15.823-26.308,19.598c-20.201,7.236-42.936,9.286-64.1,11.895
		c-21.37,2.634-42.843,4.415-64.344,5.532c-87.186,4.531-174.445-1.962-261.331-8.815c-24.613-1.941-46.102-4.765-67.949-17.005
		c-21.846-12.239-43.525-24.787-65.284-37.181c-0.879-0.5-1.737-0.686-2.552-0.676c-2.805-2.407-11.33-8.755-15.369-7.297
		c-5.659,2.042-1.693,8.122-1.636,12.438c0.118,9.046-6.782,18.066-16.698,17.852c-5.994-0.129-11.872-3.586-17.706-2.207
		c-7.36,1.739-10.867,10.071-16.884,14.653c-11.714,8.92-30.813,2.315-41.64,12.293c-0.802,0.739-1.56,1.572-2.557,2.015
		c-4.891,2.173-11.543-2.282-16.346-2.879c-2.302-0.286-4.946-0.208-6.523,1.492c-1.69,1.821-1.352,4.9,0.217,6.826
		c1.569,1.926,4.042,2.884,6.479,3.369c1.909,0.38,4.06,0.624,5.31,2.116c1.391,1.66,1.035,4.19,0.091,6.139
		s-2.386,3.656-3.082,5.707c-0.99,2.917-0.329,6.179,1.023,8.946c0.489,1.001,1.084,2.063,0.887,3.16
		c-0.147,0.818-0.712,1.488-1.255,2.118c-1.621,1.879-3.278,3.869-3.848,6.285s0.326,5.368,2.618,6.319
		c2.292,0.951,5.006-0.367,7.364,0.405c6.298,2.062,6.709,14.183,13.248,16.622c4.993,1.863,9.692,2.81,14.683,2.931
		c-0.8,2.842-1.603,5.685-2.399,8.529c-0.995,3.554,2.395,6.868,5.92,5.92c6.63-1.784,13.261-3.567,19.891-5.351
		c14.12,11.602,28.747,26.346,45.31,33.89c15.269,6.953,46.083-2.137,53.178,16.844c0.957,2.56,4.346,4.892,7.033,2.864
		c11.803-8.908,27.169,0.675,40.11-4.94c3.218-1.396,6.229-3.362,9.65-4.136c3.421-0.774,7.56,0.023,9.359,3.034
		c1.961,3.281,0.828,8.434,4.122,10.372c1.363,0.802,3.05,0.702,4.61,0.966c6.405,1.084,9.851,7.868,12.98,13.561
		c3.129,5.693,8.697,11.771,14.953,10.023c6.51-1.819,9.117-11.206,15.834-11.959c4.231-0.474,8.235,2.883,12.448,2.264
		c2.624-0.386,4.769-2.244,7.234-3.222c10.468-4.152,24.123,6.53,35.302,5.981c18.573-0.913,37.22-2.46,55.833-1.476
		c10.315,0.545,20.773,4.499,31.109,3.834c9.947-0.64,19.679-5.448,29.468-7.367c22.81-4.47,46.26-3.307,69.192-0.5
		c2.31,0.283,4.876-2.357,4.63-4.63c-1.426-13.164,21.056-8.261,27.404-6.368c10.96,3.269,20.921,8.793,29.808,15.941
		c3.652,2.937,8.348,0.185,7.615-4.433c-0.682-4.301-1.419-8.591-2.152-12.882c13.449-2.938,26.56-0.802,38.78,6.13
		c2.015,1.143,4.5,0.433,5.721-1.5c2.723-4.312,3.841-8.489,3.541-13.056c10.114-1.38,19.098-6.493,27.091-12.605
		c7.412-5.667,14.185-17.035,24.893-13.385c3.782,1.289,7.57,4.239,11.325,2.874c3.644-1.324,4.778-6.026,4.231-9.864
		s-2.202-7.558-1.945-11.427c9.284,0.481,17.243-10.147,14.167-18.921c-0.441-1.257-1.069-2.537-0.867-3.854
		c0.328-2.133,2.783-3.369,4.935-3.201c2.151,0.168,4.074,1.331,5.986,2.332c10.056,5.267,22.106,6.606,33.073,3.676
		c1.473-0.394,2.997-0.904,4.035-2.022c4.074-4.389-2.604-13.122,1.955-17.006c2.733-2.328,6.814-0.456,10.187,0.774
		c3.373,1.23,8.609,0.463,8.571-3.127c-0.019-1.757-1.433-3.125-2.555-4.477c-2.12-2.555-3.446-6.288-1.816-9.18
		c2.812-4.986,13.388,1.077,16.714,2.855c5.52,2.951,7.508-2.87,6.818-6.887C987.89,644.124,987.783,643.733,987.641,643.339z"/>
	<path fill="#F8D06E" d="M860.84,419.757c-4.418-4.081-10.214-6.514-16.173-7.154c7.366-1.595,14.164-4.376,18.959-11.471
		c8.016-11.861,1.567-25.263-11.518-29.204c-4.391-1.322-10.075-0.846-13.302-4.914c-1.78-2.244-2.143-6.212-3.895-8.714
		c-2.915-4.164-7.393-7.485-12.687-7.331c-6.185,0.18-10.984,5.108-13.183,10.519c-4.864,11.968,1.254,24.008-11.508,32.973
		c-2.417,1.698-3.388,5.27-0.97,7.526c5.523,5.154,6.418,10.561,8.113,17.434c0.017,0.07,0.063,0.117,0.083,0.185
		c-0.322,3.33,3.79,6.322,6.908,3.391c4.946-4.649,11.123-6.573,17.602-7.801c-0.853,0.428-1.689,0.896-2.488,1.436
		c-4.569,3.087-9.791,15.029-15.113,14.074c-1.522-0.274-2.754,0.178-3.596,0.979c-0.052,0.021-0.101,0.029-0.153,0.052
		c-9.953,4.387-27.052,26.24-7.547,28.607c12.319,1.495,23.817-3.08,35.866,1.37c8.118,2.998,14.687,6.012,22.583,0.52
		C872.521,452.701,872.749,430.76,860.84,419.757z M557.437,868.728c-24.16-24.532-59.37-39.533-91.445-50.374
		c-36.594-12.369-74.708-19.124-112.697-25.567c-25.233-4.28-51.078-8.599-76.488-14.463c-0.975-2.118-3.272-3.762-6.207-3.183
		c-1.173,0.231-2.289,0.544-3.378,0.896c-47.172-11.714-92.361-29.495-128.735-63.22c-32.839-30.449-49.89-69.925-53.229-114.41
		c-1.559-20.768-0.906-42.553,5.444-61.926c0.04-0.042,0.085-0.075,0.123-0.119c12.975-15.368,46.154-20.368,62.777-7.435
		c11.078,8.619,12.97,25.038,4.278,35.943c-4.165,5.225-10.594,9.123-17.433,9.165c-10.525,0.065-16.229-8.94-11.441-18.017
		c2.582-4.895-4.117-9.315-7.836-5.402c-12.818,13.484-0.036,32.822,16.343,34.275c19.483,1.729,36.15-15.575,36.85-34.441
		c0.816-22.002-17.309-36.922-37.936-38.664c-10.977-0.927-25.507-0.187-36.626,5.095c4.918-7.799,11.27-14.846,19.371-20.829
		c10.992-7.503,23.732-12.119,37.988-13.925c10.996-1.393,23.029-1.779,33.819,0.999c9.611,2.474,16.343,7.767,19.572,17.262
		c1.28,3.763,3.152,8.885,1.872,12.748c0.602,3.322-1.097,5.144-5.097,5.469c-2.578,3.304-4.797,3.644-6.657,1.022
		c-3.239-3.994-9.43-1.219-8.125,3.951c3.813,15.107,24.139,10.831,29.36-1.058c8.042-18.314-4.643-41.771-22.237-48.537
		c-26.021-10.006-64.225-4.424-88.512,14.085c-45.599,24.665-43.607,95.681-35.042,139.113c3.567,18.09,9.942,34.784,18.531,50.057
		c-8.298-3.585-17.112-6.197-25.952-5.678c-9.52,0.559-19.4,7.405-18.65,17.876c0.738,10.307,10.739,15.51,19.959,16.11
		c8.651,0.563,16.912-2.214,25.605-0.548c8.793,1.685,15.357,6.654,22.993,10.845c1.662,0.912,3.454,0.613,4.843-0.316
		c8.207,8.443,17.182,16.23,26.796,23.313c-16.259,3.908-31.53,21.791-17.462,36.394c7.333,7.611,17.775,6.164,24.374-1.365
		c4.111-4.69,6.012-10.68,11.257-14.462c2.598-1.873,5.484-2.789,8.428-3.541c1.421,0.787,2.848,1.566,4.286,2.328
		c17.307,9.164,35.335,16.308,53.803,22.135c-7.854,3.038-14.585,8.426-19.562,16.023c-5.806,8.861-11.152,24.74-0.49,32.299
		c9.273,6.574,21.091-0.903,27.265-8.292c8.478-10.148,13.043-23.907,23.729-31.485c14.902,3.605,29.983,6.63,45.116,9.378
		c-5.2,2.686-9.753,6.583-13.389,11.798c-5.97,8.563-10.777,23.528-3.513,32.801c6.565,8.38,18.625,6.298,25.975,0.184
		c9.108-7.577,12.843-43.995,28.431-36.359c2.046,1.002,4.185,0.346,5.657-1.002c6.758,1.141,13.503,2.29,20.217,3.482
		c13.774,2.447,27.554,5.107,41.235,8.188c-4.788,2.706-9.02,6.344-12.197,11.175c-5.995,9.117-8.677,24.142-1.487,33.449
		c7.257,9.393,19.245,3.401,23.579-5.461c2.93-5.992,4.216-12.586,7.598-18.419c3.85-6.641,8.38-9.483,15.217-12.344
		c8.063,2.383,16.055,5.002,23.949,7.916c28.597,10.555,65.973,26.075,83.637,52.29c26.3,39.032-27.325,74.997-63.125,66.99
		c-19.244-4.304-37.912-23.669-29.338-44.484c9.369-22.746,37.633-22.178,51.913-4.792c3.317,4.039,9.473,0.164,6.847-4.511
		c-13.293-23.674-46.572-25.738-63.473-4.687c-17.817,22.192-5.994,53.303,17.786,65.459c27.29,13.95,63.498,4.085,83.694-17.736
		C581.078,919.623,578.467,890.083,557.437,868.728z M642.563,863.546c24.16-24.532,59.37-39.533,91.445-50.374
		c36.594-12.369,74.708-19.124,112.697-25.567c25.233-4.28,51.078-8.599,76.489-14.463c0.975-2.118,3.272-3.762,6.207-3.183
		c1.173,0.232,2.289,0.544,3.378,0.896c47.172-11.714,92.361-29.495,128.735-63.22c32.839-30.449,49.89-69.925,53.229-114.41
		c1.558-20.768,0.906-42.553-5.444-61.926c-0.04-0.042-0.085-0.075-0.123-0.119c-12.975-15.368-46.154-20.368-62.776-7.435
		c-11.078,8.619-12.97,25.038-4.278,35.943c4.165,5.225,10.594,9.123,17.433,9.165c10.525,0.065,16.229-8.94,11.441-18.017
		c-2.582-4.895,4.117-9.315,7.836-5.402c12.818,13.484,0.036,32.822-16.343,34.275c-19.483,1.729-36.15-15.575-36.85-34.441
		c-0.816-22.002,17.309-36.922,37.936-38.664c10.977-0.927,25.507-0.187,36.626,5.095c-4.918-7.799-11.27-14.846-19.371-20.829
		c-10.992-7.503-23.732-12.119-37.988-13.925c-10.996-1.393-23.029-1.779-33.819,0.999c-9.611,2.474-16.343,7.767-19.572,17.262
		c-1.28,3.763-3.152,8.885-1.872,12.748c-0.602,3.322,1.097,5.144,5.097,5.469c2.578,3.304,4.797,3.644,6.657,1.022
		c3.239-3.994,9.43-1.219,8.125,3.951c-3.813,15.107-24.139,10.831-29.36-1.058c-8.042-18.314,4.643-41.771,22.237-48.537
		c26.021-10.006,64.225-4.424,88.512,14.085c45.599,24.665,43.607,95.681,35.042,139.113c-3.567,18.09-9.942,34.784-18.531,50.057
		c8.298-3.585,17.112-6.197,25.952-5.678c9.52,0.559,19.4,7.405,18.65,17.876c-0.738,10.307-10.739,15.51-19.959,16.11
		c-8.651,0.563-16.912-2.214-25.605-0.548c-8.793,1.685-15.357,6.654-22.993,10.845c-1.662,0.912-3.454,0.613-4.843-0.316
		c-8.207,8.443-17.182,16.23-26.796,23.313c16.259,3.908,31.53,21.791,17.462,36.394c-7.333,7.611-17.775,6.164-24.374-1.365
		c-4.111-4.69-6.012-10.68-11.257-14.461c-2.598-1.873-5.484-2.789-8.428-3.541c-1.421,0.787-2.848,1.566-4.286,2.328
		c-17.307,9.164-35.335,16.308-53.803,22.135c7.854,3.038,14.585,8.426,19.562,16.023c5.806,8.861,11.152,24.741,0.49,32.299
		c-9.273,6.574-21.091-0.902-27.265-8.292c-8.478-10.148-13.043-23.907-23.729-31.485c-14.903,3.605-29.983,6.63-45.115,9.378
		c5.2,2.686,9.753,6.583,13.389,11.798c5.97,8.563,10.777,23.528,3.513,32.801c-6.565,8.38-18.625,6.298-25.975,0.184
		c-9.108-7.577-12.843-43.995-28.431-36.359c-2.046,1.002-4.185,0.346-5.657-1.002c-6.758,1.141-13.503,2.29-20.217,3.482
		c-13.774,2.447-27.554,5.107-41.235,8.188c4.788,2.706,9.02,6.344,12.197,11.175c5.995,9.117,8.677,24.142,1.487,33.449
		c-7.257,9.393-19.245,3.401-23.579-5.461c-2.93-5.992-4.216-12.586-7.598-18.419c-3.85-6.641-8.38-9.482-15.217-12.344
		c-8.063,2.383-16.055,5.002-23.949,7.916c-28.597,10.555-65.973,26.075-83.637,52.29c-26.3,39.032,27.325,74.997,63.125,66.99
		c19.244-4.304,37.912-23.669,29.338-44.484c-9.369-22.746-37.633-22.178-51.913-4.792c-3.317,4.039-9.473,0.164-6.847-4.511
		c13.293-23.674,46.572-25.738,63.473-4.687c17.817,22.192,5.994,53.303-17.786,65.459c-27.29,13.95-63.498,4.085-83.694-17.735
		C618.922,914.441,621.533,884.901,642.563,863.546z M503.904,277.176c-13.249,5.088-27.829,7.36-41.426,11.596
		c-14.008,4.363-27.773,9.42-41.165,15.422c-16.918,7.582-33.28,16.783-49.06,26.779c-0.692,1.817-2.647,2.85-4.552,2.904
		c-6.336,4.103-12.582,8.317-18.718,12.61c-2.687,1.88-5.803-2.325-3.459-4.483c5.668-5.219,11.527-10.11,17.561-14.717
		c-1.684-15.369-0.327-30.98,2.534-46.132c0.748-3.961,7.344-5.009,8.989-1.175c4.357,10.149,7.015,25.36,2.958,37.084
		c13.441-8.859,27.666-16.521,42.708-23.135c0.84-0.369,1.704-0.743,2.557-1.114c1.028-11.627,3.055-23.183,4.346-34.786
		c0.397-3.568,5.955-6.387,7.808-2.115c4.528,10.441,3.914,21.468-0.035,31.784c11.119-4.514,22.962-8.746,34.879-11.659
		c-0.438-4.452,0.829-9.045,1.51-13.498c1.032-6.747,2.018-13.5,3.019-20.251c0.797-5.374,7.921-3.888,9.465,0
		c3.96,9.975,3.623,21.553-0.947,31.146c6.881-1.043,13.71-1.523,20.357-1.209C506.2,272.366,506.504,276.178,503.904,277.176z
		 M696.096,271.994c13.249,5.088,27.829,7.36,41.426,11.596c14.008,4.363,27.773,9.42,41.165,15.422
		c16.918,7.582,33.281,16.783,49.06,26.779c0.692,1.817,2.647,2.85,4.552,2.904c6.336,4.103,12.582,8.317,18.718,12.61
		c2.687,1.879,5.803-2.325,3.459-4.483c-5.668-5.219-11.527-10.11-17.561-14.717c1.684-15.369,0.327-30.98-2.534-46.132
		c-0.748-3.961-7.344-5.009-8.989-1.175c-4.357,10.149-7.015,25.36-2.958,37.084c-13.441-8.859-27.666-16.521-42.708-23.135
		c-0.84-0.369-1.704-0.743-2.557-1.114c-1.028-11.627-3.055-23.183-4.346-34.786c-0.397-3.568-5.955-6.387-7.808-2.115
		c-4.528,10.441-3.914,21.468,0.035,31.784c-11.119-4.514-22.962-8.746-34.879-11.659c0.438-4.452-0.829-9.045-1.51-13.498
		c-1.032-6.747-2.018-13.5-3.019-20.251c-0.797-5.374-7.922-3.888-9.465,0c-3.96,9.975-3.623,21.553,0.947,31.146
		c-6.881-1.043-13.71-1.523-20.357-1.209C693.8,267.183,693.496,270.995,696.096,271.994z"/>
	<path fill="#CC7C40" d="M887.98,555.455c-10.702-21.629-31.672-34.958-52.351-45.809c-12.13-6.365-24.401-12.472-36.608-18.688
		c-4.426-2.254-16.304-5.771-18.719-9.65c-4.322-6.942,6.607-16.031,10.774-20.692c11.909-13.322,35.306-27.061,26.468-48.068
		c-8.277-19.675-31.202-17.668-45.264-6.296c-19.795,16.007-47.028,14.189-60.269-9.386c-5.265-9.375-10.454-16.601-19.838-22.206
		c-10.544-6.298-22.523-10.827-34.177-14.603c-49.971-16.192-106.427-15.513-157.948-8.158
		c-50.358,7.189-90.764,32.216-124.472,69.677c-35.136,39.047-69.947,90.147-58.369,145.253c2.014,9.584,4.636,18.4,4.584,28.314
		c-0.036,6.889-0.988,13.734-1.281,20.61c-0.534,12.543,1.189,24.512,6.277,36.056c6.677,15.146,17.933,27.524,31.808,35.985
		c0,1.734,0.778,3.379,2.686,4.211c33.433,14.577,70.267,17.635,105.805,23.953c38.89,6.913,74.8,23.236,113.241,31.544
		c29.297,6.332,65.775,7.908,91.442-10.404c21.837-15.579,8.165-37.965-9.238-51.46c6.24,0.673,12.496,1.236,18.792,1.538
		c27.372,1.313,54.91-0.748,81.296-8.44c24.962-7.277,48.517-18.671,71.66-30.355c18.117-9.146,37.405-19.127,49.725-35.85
		C896.562,595.483,897.262,574.215,887.98,555.455z"/>
	<path fill="#AA6231" d="M745.382,414.835c3.964-0.831,5.657,5.169,1.681,6.096c-54.686,12.754-112.873,25.548-154.74,65.805
		c-18.841,18.117-33.877,41.104-39.332,66.925c-5.039,23.852-1.314,54.07,22.554,66.446c4.793,2.485,1.315,10.903-3.706,8.79
		c-23.453-9.871-32.59-35.397-31.523-59.567c1.239-28.083,13.897-54.24,31.945-75.361
		C615.279,443.629,683.416,427.827,745.382,414.835z M761.023,516.494c8.769-14,18.213-26.658,19.642-43.267
		c0.256,0.04,0.524-0.052,0.707-0.311c0.586-0.829,0.586-1.726,0.69-2.709c0.177-1.668-2.771-1.671-2.594,0
		c0.05,0.474,0.078,0.927,0.158,1.363c-6.67,10.389-12.057,21.45-19.139,31.629c-6.173,8.871-12.747,17.938-16.147,28.32
		c-4.558,13.914-2.525,33.917,11.975,41.211c4.068,2.046,9.101-3.409,5.173-6.704C744.734,551.965,750.781,532.848,761.023,516.494z
		 M771.902,566.055c1.005-0.246,1.485-1.311,1.283-2.26c-0.404-1.899-2.314-3.414-3.671-4.693c-1.457-1.373-2.963-2.647-4.191-4.248
		c-1.951-2.544-6.097-0.386-4.433,2.591c1.162,2.078,2.587,4.312,4.366,5.915C766.995,564.927,769.453,566.655,771.902,566.055z
		 M786.485,556.677c-3.341-0.843-6.776-1.518-9.528-3.782c-2.967-2.442-6.977,1.373-4.279,4.28c2.323,2.502,5.256,4.537,8.579,5.441
		c2.489,0.677,7.546,1.053,9.177-1.57C792.277,558.079,788.504,557.186,786.485,556.677z M780.686,574.166
		c-0.683-0.198-1.381-0.263-2.06-0.505c-1.147-0.408-2.186-0.957-3.171-1.676c-1.385-1.012-3.549-0.369-4.496,0.897
		c-0.935,1.252-1.113,3.494,0.272,4.577c1.533,1.198,3.161,2.322,5.096,2.753c1.957,0.435,4.544,0.884,6.015-0.823
		c0.767-0.889,1.248-2.45,0.453-3.515C782.221,575.106,781.647,574.444,780.686,574.166z M639.2,671.349
		c-8.547-3.242-17.08-6.42-25.249-10.596c-7.44-3.803-14.402-8.638-22.156-11.766c-1.847-0.745-2.874,1.839-1.787,3.071
		c5.943,6.736,14.364,12.246,23.454,16.524c-12.798-0.273-25.439,0.573-35.742,0.573c-10.518,0.002-21.756,0.744-31.977-2.194
		c-10.678-3.069-17.386-10.833-26.305-16.792c-13.414-8.962-32.969-13.728-48.427-7.682c-4.235,1.656-4.2,9.058,1.171,8.65
		c9.794-0.744,18.636-2.161,28.339,0.717c9.394,2.786,16.245,8.32,23.84,14.274c12.264,9.615,25.583,12.017,40.895,12.105
		c32.417,0.187,73.958-8.451,99.828,15.877c2.49,2.341,6.994-0.735,4.922-3.798C662.869,679.766,651.762,674.207,639.2,671.349z
		 M450.755,651.201c-9.758,4.648-23.602,14.167-23.521,26.408c0.012,1.831,2.055,2.374,3.321,1.375
		c4.166-3.288,6.743-8.176,10.294-12.068c3.762-4.123,8.004-7.9,12.825-10.723C456.928,654.288,454.074,649.62,450.755,651.201z
		 M887.946,554.956c-8.942-20.159-44.436-26.166-63.302-30c-3.378-0.687-4.82,4.27-1.437,5.211
		c11.082,3.081,22.362,6.072,33.005,10.471c10.622,4.39,18.763,12.484,28.961,17.091
		C887.081,558.589,888.789,556.855,887.946,554.956z M358.081,499.768c-12.676,6.812-21.345,24.729-26.981,37.358
		c-6.567,14.713-9.63,29.125-11.074,45.054c-0.242,2.675,4.248,3.31,4.723,0.639c2.719-15.284,8.089-31.068,15.104-44.892
		c6.222-12.26,16.925-22.737,21.998-35.26C362.749,500.45,359.864,498.809,358.081,499.768z M666.859,375.918
		c2.928,2.158,6.2,3.779,9.068,6.037c3.482,2.742,8.44-1.845,5.005-5.005c-2.522-2.321-5.284-4.7-8.346-6.281
		c-2.188-1.13-6.738-3.155-8.771-0.837C661.575,372.389,665.102,374.623,666.859,375.918z M653.889,381.725
		c-0.691,0.48-0.905,1.116-0.782,1.922c0.338,2.221,3.125,2.913,4.938,3.684c2.219,0.944,4.496,1.767,6.744,2.641
		c2.354,0.915,4.013-3,1.728-4.098c-2.228-1.071-4.437-2.213-6.708-3.188C657.981,381.9,655.743,380.438,653.889,381.725z
		 M638.784,370.901c4.255,1.882,8.38,3.267,12.897,4.39c3.241,0.806,5.667-4.127,2.373-5.63c-4.216-1.924-8.281-3.517-12.77-4.689
		c-1.51-0.394-2.799,0.298-3.663,1.491c-0.362,0.499-0.41,1.042-0.443,1.637C637.121,369.126,637.815,370.472,638.784,370.901z
		 M614.391,375.452c-0.641,0.656-0.907,1.883-0.346,2.685c1.784,2.551,4.944,3.378,7.887,3.933
		c3.723,0.702,7.404,1.718,10.898,3.195c4.351,1.839,8.264-4.275,3.818-6.532C631.231,375.981,619.72,369.995,614.391,375.452z
		 M618.325,364.848c4.314,0.17,4.044-6.02,0-6.538c-4.762-0.61-9.438-1.868-13.858,0.644c-0.916,0.521-1.263,2.071-0.361,2.8
		C608.245,365.102,613.282,364.65,618.325,364.848z M693.03,402.627c4.153,2.069,7.822-4.135,3.654-6.252
		c-3.025-1.537-6.33-3.799-9.738-4.259c-2.89-0.39-5.376,2.752-3.018,5.185C686.352,399.801,689.965,401.101,693.03,402.627z
		 M576.948,380.371c-0.818,0.662-0.632,1.986,0,2.675c1.924,2.094,4.974,2.29,7.677,2.518c3.376,0.285,6.763,0.471,10.143,0.707
		c4.343,0.302,4.312-6.435,0-6.755c-3.377-0.25-6.76-0.589-10.143-0.752C581.856,378.63,579.156,378.586,576.948,380.371z
		 M568.3,368.87c4.899,2.064,11.911,0.263,17.048-0.177c3.9-0.335,3.992-6.399,0-6.16c-5.359,0.32-12.83-0.45-17.558,2.436
		C566.078,366.014,566.672,368.184,568.3,368.87z M646.576,690.168c-4.767,1.475-8.923,3.904-12.36,7.557
		c-2.89,3.072-6.154,7.688-5.496,12.082c0.163,1.088,1.72,1.638,2.58,1.049c3.034-2.076,4.913-5.944,7.386-8.662
		c2.791-3.066,6.081-5.763,9.617-7.928C650.419,692.973,649.07,689.397,646.576,690.168z M635.929,690.61
		c1.803-1.49-0.593-4.639-2.521-3.267c-11.146,7.933-26.25,22.782-23.577,38.031c0.271,1.544,2.271,1.414,3.012,0.394
		c3.96-5.448,5.571-12.469,9.038-18.281C625.646,701.173,630.254,695.3,635.929,690.61z M617.217,689.402
		c2.686-1.851,0.245-6.206-2.591-4.433c-5.817,3.638-10.518,9.028-12.642,15.617c-0.317,0.983,0.063,2.021,0.727,2.752
		c3.071,3.371,5.125-2.433,6.128-4.342C610.865,695.138,613.621,691.881,617.217,689.402z M598.048,681.911
		c-5.623,2.166-11.026,6.019-12.976,11.978c-0.278,0.851,0.05,1.784,0.638,2.412c2.513,2.688,5.006-2.057,6.278-3.627
		c2.239-2.762,4.565-5.16,7.663-6.961C601.622,684.569,600.308,681.041,598.048,681.911z M551.43,357.561
		c1.865,1.315,4.289,0.324,6.38,0.002c2.661-0.41,5.207-0.564,7.897-0.346c3.557,0.288,3.395-5.022,0-5.458
		c-3.998-0.512-13.58-1.247-15.121,3.727C550.329,356.314,550.773,357.097,551.43,357.561z M535.576,371.041
		c1.96,1.212,4.363,0.793,6.509,0.304c2.43-0.554,4.832-1.306,7.238-1.956c4.164-1.125,2.408-7.505-1.781-6.461
		c-3.846,0.959-10.583,1.396-12.722,5.23C534.255,369.17,534.59,370.432,535.576,371.041z M681.873,542.138
		c0.148,0,0.149-0.231,0-0.231C681.725,541.907,681.724,542.138,681.873,542.138z M757.747,422.122
		c3.767,1.645,7.428,3.981,10.681,6.493c2.662,2.056,5.012,5.972,8.564,6.137c0.759,0.035,1.761-0.624,1.876-1.428
		c0.58-4.074-3.681-7.09-6.622-9.32c-3.949-2.994-8.082-4.605-12.875-5.734C757.166,417.751,755.463,421.124,757.747,422.122z
		 M749.08,428.498c1.966,0.834,3.822,1.824,5.62,2.976c1.702,1.09,3.326,2.325,5.297,2.831c0.968,0.248,2.243-0.715,1.795-1.795
		c-1.77-4.266-7.004-6.376-11.087-7.863C748.487,423.839,746.878,427.564,749.08,428.498z M746.069,435.702
		c-2.942-2.649-6.504-4.414-10.32-5.398c-2.516-0.649-3.357,2.888-1.049,3.804c3.229,1.281,5.953,3.322,8.343,5.817
		c1.81,1.888,3.367,5.463,5.938,6.229c0.854,0.254,1.554-0.314,1.861-1.057C752.134,441.97,748.17,437.594,746.069,435.702z
		 M721.244,439.202c-2.197-1.34-4.046,1.975-1.991,3.406c3.923,2.733,6.922,5.886,9.722,9.74c2.242,3.086,3.983,7.166,6.861,9.673
		c1.324,1.153,3.699,0.449,3.644-1.509C739.221,451.362,728.271,443.489,721.244,439.202z M671.836,453.423
		c-1.042-3.169-5.732-1.891-5.002,1.379c1.049,4.704,2.591,9.349,4.862,13.615c1.767,3.317,4.516,8.562,8.548,9.196
		c1.334,0.209,2.715-0.546,2.702-2.059c-0.031-3.641-3.388-6.807-5.253-9.807C675.261,461.835,673.278,457.808,671.836,453.423z
		 M656.034,458.821c-0.449,4.484,0.028,8.879,1.806,13.04c1.429,3.343,3.671,7.849,7.627,8.294c0.927,0.104,1.828-0.901,1.783-1.783
		c-0.153-3.017-2.871-5.505-4.181-8.193c-1.717-3.522-2.601-7.457-2.604-11.358C660.463,455.916,656.312,456.036,656.034,458.821z
		 M640.076,463.822c-0.561,3.082-0.718,6.141-0.276,9.252c0.366,2.572,0.978,6.232,3.523,7.487c0.826,0.407,1.891,0.091,2.143-0.872
		c0.598-2.287-0.687-4.551-1.211-6.785c-0.666-2.837-0.701-5.684-0.357-8.564C644.155,462.177,640.468,461.669,640.076,463.822z
		 M612.167,484.74c0.568,4.605,2.092,8.933,5.528,12.171c1.959,1.846,5.677-0.66,3.913-3.019c-2.237-2.993-4.282-6.074-5.248-9.719
		C615.763,481.924,611.865,482.293,612.167,484.74z"/>
	<path fill="#6B6B61" d="M894.704,595.782c-0.558,1.446-2.673,1.265-2.744-0.371c-1.053-24.35-3.748-43.61-22.836-60.886
		c-16.71-15.123-34.965-23.262-54.452-33.808c-2.789-1.509-0.83-5.75,2.106-4.995c21.93,5.639,46.766,19.136,60.329,37.742
		C889.325,550.226,902.896,574.55,894.704,595.782z M882.672,582.784c-1.547-3.989-7.797-2.492-6.559,1.808
		c1.21,4.206,0.5,8.7-1.559,12.541c-2.155,4.021,3.396,7.048,5.996,3.505C884.394,595.401,885.008,588.806,882.672,582.784z
		 M870.773,573.919c-0.224-3.529-0.888-7.022-1.701-10.458c-0.793-3.351-6.553-2.725-6.143,0.832
		c0.394,3.424,0.467,6.83,0.582,10.271c0.096,2.844-0.29,6.003,1.918,8.092c0.99,0.937,2.253,0.784,3.264,0
		C871.161,580.742,870.954,576.772,870.773,573.919z M854.875,598.864c-0.517,2.375-1.196,4.71-2.162,6.944
		c-0.868,2.008-1.99,3.99-1.989,6.226c0.001,1.249,1.327,1.897,2.376,1.363c4.227-2.151,5.741-8.955,6.635-13.193
		C860.403,597.043,855.566,595.687,854.875,598.864z M880.577,563.473c-0.449-1.475-1.996-2.41-3.511-1.994
		c-1.646,0.453-2.206,1.978-1.994,3.512c0.345,2.484,0.533,4.985,1.716,7.245c1.39,2.655,5.216,1.239,5.348-1.449
		C882.26,568.288,881.295,565.827,880.577,563.473z M685.799,711.59c-0.446-3.43-5.391-3.664-5.526,0
		c-0.369,9.954-4.498,18.13-12.151,24.431c-6.782,5.584-14.968,6.926-22.27,11.243c-1.107,0.655-0.572,2.244,0.628,2.32
		c9.031,0.571,21.316-4.219,28.269-9.943C683.132,732.741,687.19,722.29,685.799,711.59z M606.759,747.482
		c-31.429-6.771-62.015-15.669-92.996-24.105c-1.543-0.42-2.532,1.81-1.1,2.609c28.408,15.83,61.1,24.253,93.345,27.043
		C609.173,753.303,609.858,748.15,606.759,747.482z M992.803,700.746c-8.344,5.347-17.051,10.111-25.992,14.39
		c-8.811,4.216-18.814,6.635-27.135,11.708c-1.592,0.97-1.032,3.798,0.996,3.678c19.099-1.127,39.512-14.882,54.522-25.686
		C997.622,703.089,995.413,699.073,992.803,700.746z M918.585,733.73c-10.208,5.443-21.825,8.272-31.682,14.204
		c-1.118,0.672-0.671,2.507,0.674,2.489c11.727-0.152,23.501-6.793,33.521-12.394C923.902,736.463,921.411,732.223,918.585,733.73z"
		/>
	<path fill="#CA5A36" d="M299.707,368.551c7.869,0.157,14.121,6.664,13.964,14.534s-6.664,14.121-14.534,13.964
		s-14.121-6.664-13.964-14.534C285.33,374.645,291.837,368.393,299.707,368.551z M590.934,263.32
		c-0.157,7.869,6.094,14.376,13.964,14.534c7.869,0.157,14.376-6.094,14.534-13.964c0.157-7.869-6.094-14.376-13.964-14.534
		C597.598,249.198,591.091,255.45,590.934,263.32z M900.293,363.368c-7.869,0.157-14.121,6.664-13.964,14.534
		c0.157,7.869,6.664,14.121,14.534,13.964c7.869-0.157,14.121-6.664,13.964-14.534C914.67,369.463,908.163,363.211,900.293,363.368z
		 M330.018,641.436c-0.511-0.913-1.166-1.52-1.88-1.914c-7.018-12.42-21.431-19.94-35.528-13.642
		c-16.363,7.311-18.105,28.656-10.91,43.107c7.246,14.553,27.673,26.459,43.661,18.709c7.19-3.486,12.912-11.838,14.46-19.616
		C341.746,658.403,334.463,649.372,330.018,641.436z M390.314,703.801c-3.133-12.825-21.972-28.751-35.563-21.661
		c-10.886-0.255-20.368,8.964-20.347,20.944c0.029,16.777,14.178,26.901,29.542,28.37
		C380.18,733.005,394.547,721.129,390.314,703.801z M919.962,600.336c-11.169-9.348-27.938-9.008-36.183,3.098
		c-9.344,3.215-13.327,15.987-9.626,25.719c6.358,16.721,27.653,13.979,39.881,5.901
		C926.954,626.519,933.371,611.558,919.962,600.336z M737.7,687.126c-3.133-12.825-21.972-28.751-35.563-21.661
		c-10.886-0.255-20.368,8.964-20.347,20.944c0.029,16.777,14.178,26.901,29.542,28.37C727.566,716.33,741.933,704.454,737.7,687.126
		z M233.384,422.815c-34.157-4.782-75.731-2.158-107.662,11.543c-1.747,0.749-2.374,2.307-2.224,3.882
		c-1.473,2.386,0.299,6.039,3.878,5.341c22.641-4.416,43.967-2.086,66.102,3.893c19.067,5.15,35.063,10.48,44.33,29.19
		c5.149,10.396,12.138,24.503,26.161,23.085c11.995-1.213,19.448-13.744,21.039-24.602
		C289.489,444.567,259.643,426.491,233.384,422.815z M249.408,342.924c-13.898-12.751-39.602-0.69-53.07,7.047
		c-18.258,10.489-40.343,28.122-50.169,47.046c-1.405,2.705-0.261,5.092,1.718,6.153c0.039,2.077,1.694,4.02,4.498,3.394
		c26.946-6.013,55.631-14.176,81.187-24.698C247.398,376.175,264.854,357.095,249.408,342.924z M966.616,417.633
		c34.157-4.782,75.731-2.158,107.663,11.543c1.747,0.749,2.374,2.307,2.224,3.882c1.473,2.386-0.299,6.039-3.878,5.341
		c-22.641-4.416-43.967-2.086-66.103,3.893c-19.067,5.15-35.063,10.48-44.33,29.19c-5.149,10.396-12.138,24.503-26.161,23.085
		c-11.995-1.213-19.448-13.744-21.039-24.602C910.511,439.384,940.357,421.309,966.616,417.633z M950.592,337.742
		c13.898-12.751,39.602-0.69,53.07,7.047c18.258,10.489,40.343,28.122,50.169,47.046c1.405,2.705,0.261,5.092-1.718,6.153
		c-0.039,2.077-1.694,4.02-4.498,3.394c-26.946-6.013-55.631-14.176-81.187-24.698C952.602,370.993,935.146,351.912,950.592,337.742
		z"/>
</g>
</svg>
